<?xml version="1.0" encoding="iso-8859-1"?>
<!-- Generator: Adobe Illustrator 22.1.0, SVG Export Plug-In . SVG Version: 6.00 Build 0)  -->
<svg version="1.0" id="&#x56FE;&#x5C42;_1" xmlns="http://www.w3.org/2000/svg" xmlns:xlink="http://www.w3.org/1999/xlink" x="0px"
	 y="0px" viewBox="0 0 248 48" style="enable-background:new 0 0 248 48;" xml:space="preserve">
<path style="fill:none;stroke:#4A4A4A;stroke-width:1.5;stroke-miterlimit:10;" d="M6.75,3.678l20,20.8l20-20.8v40l-20-37.6
	l-20,37.6V3.678z"/>
<g>
	<path style="fill:#4A4A4A;" d="M74.768,37.647c-0.242-0.861-0.363-2.057-0.363-3.598c-0.656,1.066-1.62,1.997-2.9,2.783
		c-1.28,0.791-2.895,1.182-4.845,1.182c-1.829,0-3.295-0.498-4.398-1.499c-1.103-1.001-1.652-2.281-1.652-3.844
		c0-1.755,0.801-3.197,2.411-4.314c1.61-1.117,3.835-1.68,6.684-1.68h4.71v-2.881c0-1.638-0.521-2.909-1.564-3.826
		s-2.527-1.378-4.445-1.378c-1.783,0-3.277,0.461-4.482,1.382c-1.205,0.922-1.811,2.062-1.811,3.416l-0.982-0.037
		c0-1.541,0.68-2.881,2.043-4.026c1.364-1.145,3.114-1.713,5.231-1.713c2.048,0,3.723,0.517,5.027,1.555s1.955,2.592,1.955,4.664
		v9.416c0,1.964,0.172,3.379,0.507,4.235v0.163C75.895,37.647,74.768,37.647,74.768,37.647z M66.661,37.047
		c1.904,0,3.505-0.424,4.808-1.271c1.303-0.847,2.281-1.992,2.937-3.435v-4.673h-4.747c-2.509,0.009-4.482,0.489-5.916,1.438
		c-1.434,0.949-2.155,2.155-2.155,3.635c0,1.191,0.475,2.206,1.42,3.044C63.952,36.628,65.171,37.047,66.661,37.047z"/>
	<path style="fill:#4A4A4A;" d="M85.645,9.722v27.925h-0.982V9.722H85.645z"/>
	<path style="fill:#4A4A4A;" d="M108.851,34.827c-1.489,2.122-3.668,3.184-6.525,3.184c-2.388,0-4.422-0.912-6.102-2.746
		c-1.68-1.829-2.518-4.17-2.518-7.033v-0.801c0-2.872,0.81-5.227,2.425-7.065c1.615-1.838,3.561-2.755,5.827-2.755
		c2.183,0,3.975,0.777,5.371,2.327c1.396,1.55,2.104,3.579,2.104,6.074v1.145H94.688v1.07c0,2.448,0.731,4.529,2.192,6.241
		c1.461,1.717,3.277,2.574,5.445,2.574c1.126,0,2.174-0.186,3.146-0.563c0.968-0.372,1.866-1.089,2.69-2.146L108.851,34.827z
		 M101.958,18.593c-1.987,0-3.63,0.726-4.929,2.183s-2.053,3.253-2.271,5.399h13.688v-0.233c0-1.973-0.586-3.691-1.764-5.152
		C105.505,19.328,103.932,18.593,101.958,18.593z"/>
	<path style="fill:#4A4A4A;" d="M116.349,17.979l6.293,8.727l6.274-8.727h1.238l-6.907,9.583l7.275,10.086h-1.219l-6.674-9.234
		l-6.656,9.234h-1.219l7.275-10.086l-6.916-9.583H116.349z"/>
	<path style="fill:#4A4A4A;" d="M145.499,18.579c-1.457,0-2.662,0.377-3.626,1.126c-0.963,0.749-1.708,1.648-2.234,2.681
		s-0.875,1.978-1.047,2.825v12.431h-1.001V17.979h1.001v4.636c0.582-1.406,1.471-2.592,2.662-3.556s2.625-1.443,4.296-1.443
		c1.648,0,2.997,0.363,4.045,1.089c1.047,0.726,1.736,1.918,2.062,3.565c0.545-1.299,1.447-2.397,2.699-3.3
		c1.252-0.903,2.765-1.354,4.538-1.354c1.973,0,3.519,0.563,4.626,1.68c1.108,1.117,1.671,2.965,1.68,5.534v12.813h-0.982V24.83
		c-0.009-2.462-0.526-4.119-1.536-4.98c-1.01-0.861-2.295-1.285-3.844-1.271c-1.55,0.014-2.83,0.372-3.835,1.07
		c-1.005,0.698-1.764,1.522-2.281,2.453s-0.801,1.75-0.866,2.453v13.088h-0.982V24.467c-0.009-2.304-0.521-3.863-1.527-4.673
		C148.343,18.984,147.063,18.579,145.499,18.579z"/>
	<path style="fill:#4A4A4A;" d="M172.964,27.431c0-2.886,0.796-5.241,2.392-7.074c1.596-1.834,3.663-2.746,6.209-2.746
		c2.569,0,4.65,0.917,6.237,2.746c1.587,1.829,2.383,4.189,2.383,7.074v0.763c0,2.886-0.791,5.241-2.374,7.07
		c-1.582,1.834-3.654,2.746-6.209,2.746s-4.636-0.912-6.237-2.746c-1.601-1.829-2.402-4.184-2.402-7.07
		C172.964,28.195,172.964,27.431,172.964,27.431z M173.941,28.195c0,2.35,0.675,4.412,2.02,6.181
		c1.345,1.773,3.225,2.653,5.636,2.653c2.388,0,4.254-0.88,5.59-2.653c1.34-1.769,2.011-3.826,2.011-6.181v-0.763
		c0-2.304-0.67-4.352-2.011-6.144c-1.34-1.792-3.216-2.695-5.627-2.695c-2.402,0-4.268,0.898-5.608,2.69
		c-1.34,1.792-2.011,3.844-2.011,6.144V28.195z"/>
	<path style="fill:#4A4A4A;" d="M205.087,18.979h-5.203v18.668h-0.982V18.979h-3.416v-1.001h3.416v-2.876
		c0.009-1.852,0.475-3.281,1.392-4.273s2.164-1.489,3.756-1.489c0.908,0,1.68,0.102,2.327,0.307l-0.144,0.945
		c-0.656-0.182-1.382-0.275-2.164-0.275c-1.285,0-2.304,0.424-3.058,1.271s-1.126,2.043-1.126,3.584v2.802h5.203V18.979z"/>
	<path style="fill:#4A4A4A;" d="M225.017,34.827c-1.489,2.122-3.668,3.184-6.525,3.184c-2.388,0-4.422-0.912-6.102-2.746
		c-1.676-1.829-2.518-4.17-2.518-7.033v-0.801c0-2.872,0.81-5.227,2.425-7.065c1.615-1.838,3.561-2.755,5.827-2.755
		c2.183,0,3.975,0.777,5.371,2.327c1.396,1.55,2.099,3.574,2.099,6.074v1.145h-14.745v1.07c0,2.448,0.731,4.529,2.192,6.241
		c1.457,1.717,3.277,2.574,5.445,2.574c1.126,0,2.178-0.186,3.146-0.563c0.968-0.372,1.866-1.089,2.69-2.146L225.017,34.827z
		 M218.124,18.593c-1.987,0-3.63,0.726-4.929,2.183c-1.299,1.457-2.053,3.253-2.271,5.399h13.688v-0.233
		c0-1.973-0.586-3.691-1.764-5.152C221.67,19.328,220.102,18.593,218.124,18.593z"/>
	<path style="fill:#4A4A4A;" d="M240.618,18.579c-1.834,0-3.277,0.591-4.347,1.773c-1.07,1.182-1.759,2.658-2.071,4.426v12.869
		h-0.982V17.979h0.982v4.091c0.545-1.368,1.35-2.453,2.411-3.253c1.061-0.801,2.397-1.201,4.007-1.201
		c0.545,0,1.005,0.065,1.382,0.2l-0.107,0.87L240.618,18.579z"/>
</g>
</svg>
