<?xml version="1.0" encoding="utf-8"?><!-- Generator: Adobe Illustrator 22.1.0, SVG Export Plug-In . SVG Version: 6.00 Build 0)  -->
<svg style="enable-background:new 0 0 180 48;" id="图层_1" version="1.0"  viewBox="0 0 180 48" x="0px"
	 xmlns="http://www.w3.org/2000/svg" y="0px" xml:space="preserve">
<style type="text/css">
	.st0{fill:#FFFFFF;}
</style>
<g>
	<path class="st0" d="M60.4,35.8c-2.3,0-3.9-0.8-5.3-2.1v8.7h-3.1V17.5h2.8l0.2,2c1.3-1.7,3-2.4,5.3-2.4s4.1,0.9,5.3,2.6
		s1.8,3.9,1.8,6.6v0.4c0,2.7-0.6,4.8-1.8,6.6C64.5,34.9,62.7,35.8,60.4,35.8z M59.6,19.7c-2,0-3.3,0.9-4.2,2.4v8.7
		c1,1.7,2.3,2.4,4.2,2.4c1.6,0,2.8-0.8,3.8-2c0.8-1.3,1.2-2.8,1.2-4.6v-0.4c0-1.8-0.4-3.5-1.2-4.7C62.6,20.4,61.2,19.7,59.6,19.7z"
		/>
	<path class="st0" d="M78.6,20.1c-2,0-3.5,0.9-4.2,2.6v12.7h-3v-18h3v2.1c1.1-1.6,2.4-2.4,4.2-2.4c0.6,0,1,0.1,1.3,0.1v3
		C79.6,20.1,79.2,20.1,78.6,20.1z"/>
	<path class="st0" d="M81.8,26.3c0-2.5,0.8-4.8,2.3-6.6c1.5-1.7,3.4-2.7,6-2.7s4.5,0.9,6,2.5c1.4,1.7,2.3,3.9,2.3,6.4v0.6
		c0,2.5-0.8,4.8-2.3,6.6s-3.4,2.7-6,2.7s-4.5-0.9-6-2.7c-1.5-1.7-2.3-3.9-2.3-6.6V26.3z M84.9,26.7c0,1.8,0.5,3.4,1.2,4.6
		c0.8,1.3,2.3,2,3.8,2s3-0.8,3.8-2c0.8-1.3,1.2-2.8,1.3-4.6v-0.4c0-1.7-0.4-3.3-1.2-4.7c-0.8-1.3-2.3-1.9-3.8-1.9s-3,0.6-3.8,1.9
		s-1.2,2.9-1.2,4.7C84.9,26.3,84.9,26.7,84.9,26.7z"/>
	<path class="st0" d="M102.1,17.5h3.2v20.1c0,3.5-1.7,5.1-4.8,5.1c-0.8,0-1.4-0.1-2-0.3V40c0.5,0.2,0.9,0.2,1.5,0.2
		c1.3,0,2-0.8,2.1-2.3V17.5z M101.9,12.8c0-0.5,0.1-0.9,0.4-1.2c0.3-0.4,0.8-0.4,1.4-0.4s1,0.1,1.4,0.4c0.3,0.3,0.4,0.8,0.4,1.2
		s-0.1,0.9-0.4,1.2c-0.3,0.4-0.8,0.4-1.4,0.4s-1-0.2-1.4-0.4C102,13.7,101.9,13.2,101.9,12.8z"/>
	<path class="st0" d="M124.4,32.3c-0.6,0.9-1.4,1.7-2.6,2.4c-1,0.8-2.5,1-4.2,1c-2.6,0-4.5-0.8-6-2.4c-1.5-1.7-2.3-3.8-2.3-6.2v-0.8
		c0-2,0.4-3.6,1.2-5.1c0.8-1.4,1.8-2.4,2.9-3.1c1.2-0.8,2.5-1.1,3.9-1.1c2.6,0,4.4,0.9,5.7,2.6c1.2,1.6,1.8,3.8,1.8,6.3v1.4h-12.3
		c0.1,1.6,0.5,3,1.5,4.2c1,1.2,2.3,1.7,3.9,1.7c1.1,0,2-0.2,2.7-0.8c0.8-0.4,1.3-1.1,1.9-1.8L124.4,32.3z M117.3,19.7
		c-1.2,0-2.3,0.4-3.2,1.3c-0.9,0.9-1.3,2.1-1.6,3.8h9v-0.2c-0.1-1.2-0.5-2.4-1-3.4C119.9,20.3,119,19.7,117.3,19.7z"/>
	<path class="st0" d="M135.5,33.3c1,0,1.9-0.3,2.8-0.9c0.9-0.8,1.2-1.5,1.4-2.6h2.9c-0.2,1.7-0.9,3-2.3,4.2c-1.4,1.2-3.2,1.8-5,1.8
		c-2.7,0-4.8-0.9-6.1-2.7c-1.4-1.8-2-3.9-2-6.3v-0.8c0-2.4,0.6-4.5,2-6.3s3.3-2.7,6.1-2.7c2.1,0,3.9,0.6,5.1,2
		c1.4,1.3,1.9,2.8,1.9,4.6h-2.8c-0.2-1-0.5-2.1-1.2-2.8s-1.8-1.2-3-1.2c-1.2,0-2.3,0.3-3,0.9c-0.8,0.6-1.2,1.3-1.5,2.4
		c-0.3,0.9-0.4,2-0.4,3v0.8c0,1.1,0.1,2.1,0.4,3s0.8,1.8,1.5,2.4C133.2,33,134.3,33.3,135.5,33.3z"/>
	<path class="st0" d="M153.8,35.6c-0.8,0.1-1.5,0.4-2.4,0.4c-1.2,0-2.1-0.4-2.9-1.1c-0.9-0.8-1.2-1.9-1.2-3.7V19.9H144v-2.4h3.3
		v-4.3h3.2v4.4h3.4V20h-3.4v11.1c0,0.9,0.1,1.5,0.6,1.6c0.5,0.2,0.9,0.5,1.4,0.5c0.5,0,0.9,0,1.4-0.2V35.6z"/>
	<path class="st0" d="M158,5.3l9.8,14l9.8-14h1.3l-10.5,14.8l11,15.5h-1.4L167.7,21l-10.2,14.6H156l11-15.5L156.6,5.3
		C156.6,5.3,158,5.3,158,5.3z"/>
</g>
<rect class="st0" height="14.4" width="14.4" y="8.7"/>
<rect class="st0" height="14.4" width="14.4" y="27.9"/>
<rect class="st0" height="14.4" width="14.4" x="19.2" y="27.9"/>
<rect class="st0" height="14.4" transform="matrix(0.7071 -0.7071 0.7071 0.7071 -3.5109 23.3314)" width="14.4" x="19.2" y="8.7"/>
</svg>
