<?xml version="1.0" encoding="utf-8"?><!-- Generator: Adobe Illustrator 22.1.0, SVG Export Plug-In . SVG Version: 6.00 Build 0)  -->
<svg style="enable-background:new 0 0 48 41.6;" id="图层_1" version="1.1"  viewBox="0 0 48 41.6" x="0px"
	 xmlns="http://www.w3.org/2000/svg" y="0px" xml:space="preserve">
<style type="text/css">
	.st0{fill:#3D83F8;}
</style>
<path class="st0" d="M0,34.1v7.5h0.5v-6.7L12,28.3l11.5,6.6v6.7h1v-6.7L36,28.3l11.5,6.6v6.7H48v-7.5l-11.5-6.6V14.2L48,7.5V0h-0.5
	v6.7L36,13.3L24.5,6.7V0h-1v6.7L12,13.3L0.5,6.7V0H0v7.5l11.5,6.6v13.3L0,34.1z M12.5,14.2L24,7.5l11.5,6.6v13.3L24,34.1l-11.5-6.6
	V14.2z"/>
</svg>
