<?xml version="1.0" encoding="iso-8859-1"?>
<!-- Generator: Adobe Illustrator 22.1.0, SVG Export Plug-In . SVG Version: 6.00 Build 0)  -->
<svg version="1.0" id="&#x56FE;&#x5C42;_1" xmlns="http://www.w3.org/2000/svg" xmlns:xlink="http://www.w3.org/1999/xlink" x="0px"
	 y="0px" viewBox="0 0 48 48" style="enable-background:new 0 0 48 48;" xml:space="preserve">
<circle style="fill:#4788F4;" cx="24" cy="24" r="20"/>
<path style="fill-rule:evenodd;clip-rule:evenodd;fill:#FFFFFF;" d="M34.805,31.855l-3.911-6.774
	c2.073-1.869,3.384-4.567,3.384-7.578H31.36c0,1.924-0.759,3.66-1.976,4.964l-2.161-3.744l1.22-1.22v-4.376
	c0-0.806-0.653-1.459-1.459-1.459h-1.459V8.75h-2.918v2.918h-1.459c-0.806,0-1.459,0.653-1.459,1.459v4.376l1.215,1.215
	l-7.581,13.13l-0.195,3.256l2.722-1.797l3.824-6.624c1.334,0.642,2.812,1.032,4.391,1.032c1.577,0,3.064-0.368,4.398-1.006
	l3.814,6.605L35,35.111L34.805,31.855z M24.066,14.075c1.007,0,1.824,0.816,1.824,1.824c0,1.007-0.816,1.824-1.824,1.824
	c-1.007,0-1.824-0.816-1.824-1.824C22.243,14.891,23.059,14.075,24.066,14.075z M24.066,24.797c-1.048,0-2.028-0.25-2.924-0.655
	l1.898-3.288c1.026,1.026,1.026,1.026,2.046,0.005L27,24.172C26.101,24.568,25.112,24.797,24.066,24.797z"/>
</svg>
