<?xml version="1.0" encoding="iso-8859-1"?>
<!-- Generator: Adobe Illustrator 22.1.0, SVG Export Plug-In . SVG Version: 6.00 Build 0)  -->
<svg version="1.0" id="Foreground_Layer" xmlns="http://www.w3.org/2000/svg" xmlns:xlink="http://www.w3.org/1999/xlink" x="0px"
	 y="0px" viewBox="0 0 72 72" style="enable-background:new 0 0 72 72;" xml:space="preserve">
<g>
	<circle style="fill:#4788F4;" cx="36" cy="36" r="36"/>
</g>
<path style="fill:#FFFFFF;" d="M53.68,52.644l-6.414-11.11c3.4-3.065,5.55-7.49,5.55-12.429H48.03c0,3.156-1.245,6.003-3.241,8.141
	l-3.544-6.14l2.001-2.001v-7.177c0-1.322-1.071-2.393-2.393-2.393H38.46V14.75h-4.786v4.786h-2.393
	c-1.322,0-2.393,1.071-2.393,2.393v7.177l1.993,1.993L18.448,52.633l-0.32,5.34l4.464-2.947l6.272-10.864
	c2.188,1.053,4.612,1.693,7.202,1.693c2.586,0,5.025-0.604,7.213-1.65l6.255,10.833L54,57.984L53.68,52.644z M36.067,23.483
	c1.652,0,2.992,1.338,2.992,2.992c0,1.652-1.338,2.992-2.992,2.992c-1.652,0-2.992-1.338-2.992-2.992
	C33.077,24.822,34.416,23.483,36.067,23.483z M36.067,41.068c-1.719,0-3.326-0.41-4.796-1.074l3.113-5.393
	c1.683,1.683,1.683,1.683,3.356,0.008l3.139,5.434C39.405,40.693,37.783,41.068,36.067,41.068z"/>
</svg>
