<?xml version="1.0" encoding="iso-8859-1"?><!-- Generator: Adobe Illustrator 22.1.0, SVG Export Plug-In . SVG Version: 6.00 Build 0)  -->
<svg style="enable-background:new 0 0 32 28;" id="&#x56FE;&#x5C42;_1" version="1.0"  viewBox="0 0 32 28"
	 x="0px" xmlns="http://www.w3.org/2000/svg" y="0px" xml:space="preserve">
<g>
	<path style="fill:#999999;" d="M16,4c2.476,0,4.381,1.794,4.529,4.266c0.104,1.738-0.379,3.374-1.479,5.002
		c-0.812,1.203-1.27,2.142-1.046,3.106c0.225,0.967,1.031,1.592,2.348,2.346c0.383,0.219,0.768,0.434,1.154,0.65
		c1.036,0.579,2.107,1.177,3.09,1.835c0.799,0.535,1.371,1.088,1.652,1.601c0.343,0.625,0.411,1.201,0.187,1.582
		c-0.224,0.38-0.76,0.601-1.47,0.605C23.953,24.998,22.962,25,21.977,25c-0.979,0-1.952-0.002-2.931-0.004
		c-0.994-0.002-1.994-0.004-3.015-0.004h-0.063c-1.021,0-2.021,0.002-3.015,0.004C11.975,24.998,11.002,25,10.023,25
		c-0.985,0-1.976-0.002-2.988-0.008c-0.711-0.004-1.247-0.225-1.47-0.605c-0.224-0.381-0.156-0.958,0.187-1.582
		c0.281-0.513,0.853-1.066,1.652-1.601c0.983-0.658,2.054-1.256,3.09-1.835c0.385-0.215,0.771-0.431,1.154-0.65
		c1.317-0.753,2.123-1.379,2.348-2.346c0.224-0.964-0.234-1.903-1.046-3.106c-1.099-1.628-1.583-3.265-1.478-5.002
		C11.619,5.794,13.524,4,16,4 M16,3c-3,0-5.347,2.195-5.527,5.206c-0.125,2.08,0.489,3.906,1.648,5.622
		c1.449,2.146,1.266,2.744-0.97,4.024c-1.443,0.826-2.923,1.598-4.303,2.521c-0.76,0.509-1.544,1.17-1.973,1.951
		c-1.084,1.974-0.095,3.655,2.154,3.668C8.043,25.998,9.037,26,10.023,26c1.973,0,3.919-0.008,5.946-0.008c0.011,0,0.021,0,0.031,0
		c0.01,0,0.021,0,0.031,0c2.027,0,3.973,0.008,5.946,0.008c0.987,0,1.98-0.002,2.994-0.008c2.249-0.013,3.238-1.694,2.154-3.668
		c-0.429-0.781-1.212-1.442-1.973-1.951c-1.379-0.923-2.859-1.695-4.303-2.521c-2.236-1.279-2.419-1.878-0.97-4.024
		c1.159-1.716,1.773-3.542,1.648-5.622C21.347,5.195,19,3,16,3L16,3z"/>
</g>
</svg>
