<?xml version="1.0" encoding="iso-8859-1"?><!-- Generator: Adobe Illustrator 22.1.0, SVG Export Plug-In . SVG Version: 6.00 Build 0)  -->
<svg style="enable-background:new 0 0 32 28;" id="&#x56FE;&#x5C42;_3" version="1.0"  viewBox="0 0 32 28"
	 x="0px" xmlns="http://www.w3.org/2000/svg" y="0px" xml:space="preserve">
<path style="fill:#45C01A;" d="M24.125,22.324c-0.429-0.781-1.212-1.442-1.973-1.951c-1.379-0.923-2.859-1.695-4.303-2.521
	c-2.236-1.279-2.419-1.878-0.97-4.024c1.159-1.716,1.773-3.542,1.648-5.622C18.347,5.195,16,3,13,3S7.653,5.195,7.473,8.206
	c-0.125,2.08,0.489,3.906,1.648,5.622c1.449,2.146,1.266,2.745-0.97,4.024c-1.443,0.826-2.923,1.598-4.303,2.521
	c-0.76,0.509-1.544,1.17-1.973,1.951c-1.084,1.974-0.095,3.655,2.154,3.668c3.052,0.017,5.918,0,8.971,0
	c3.052,0,5.919,0.017,8.971,0C24.219,25.979,25.208,24.299,24.125,22.324z"/>
<path style="fill:#45C01A;" d="M21.5,12h8c0.552,0,1-0.448,1-1v0c0-0.552-0.448-1-1-1h-8c-0.552,0-1,0.448-1,1v0
	C20.5,11.552,20.948,12,21.5,12z"/>
<path style="fill:#45C01A;" d="M23.5,16h6c0.552,0,1-0.448,1-1v0c0-0.552-0.448-1-1-1h-6c-0.552,0-1,0.448-1,1v0
	C22.5,15.552,22.948,16,23.5,16z"/>
<path style="fill:#45C01A;" d="M25.5,20h4c0.552,0,1-0.448,1-1v0c0-0.552-0.448-1-1-1h-4c-0.552,0-1,0.448-1,1v0
	C24.5,19.552,24.948,20,25.5,20z"/>
</svg>
