<?xml version="1.0" encoding="iso-8859-1"?><!-- Generator: Adobe Illustrator 22.1.0, SVG Export Plug-In . SVG Version: 6.00 Build 0)  -->
<svg style="enable-background:new 0 0 32 28;" id="&#x56FE;&#x5C42;_5" version="1.0"  viewBox="0 0 32 28"
	 x="0px" xmlns="http://www.w3.org/2000/svg" y="0px" xml:space="preserve">
<g>
	<path style="fill:#999999;" d="M16,3c6.617,0,12,4.71,12,10.5S22.617,24,16,24c-2.218,0-4.397-0.546-6.301-1.58L9.293,22.2
		l-0.43,0.166l-3.622,1.393l1.203-3.127l0.21-0.546l-0.372-0.451C4.789,17.831,4,15.709,4,13.5C4,7.71,9.383,3,16,3 M16,2
		C8.82,2,3,7.149,3,13.5c0,2.536,0.939,4.872,2.51,6.773L3.5,25.5l5.722-2.201C11.197,24.371,13.513,25,16,25
		c7.18,0,13-5.149,13-11.5C29,7.149,23.18,2,16,2L16,2z"/>
</g>
</svg>
