<?xml version="1.0" encoding="iso-8859-1"?><!-- Generator: Adobe Illustrator 22.1.0, SVG Export Plug-In . SVG Version: 6.00 Build 0)  -->
<svg style="enable-background:new 0 0 32 28;" id="&#x56FE;&#x5C42;_7" version="1.0"  viewBox="0 0 32 28"
	 x="0px" xmlns="http://www.w3.org/2000/svg" y="0px" xml:space="preserve">
<g>
	<path style="fill:#999999;" d="M16,2.25c6.479,0,11.75,5.271,11.75,11.75S22.479,25.75,16,25.75S4.25,20.479,4.25,14
		S9.521,2.25,16,2.25 M16,1.25C8.958,1.25,3.25,6.958,3.25,14S8.958,26.75,16,26.75S28.75,21.042,28.75,14S23.042,1.25,16,1.25
		L16,1.25z"/>
</g>
<path style="fill:#999999;" d="M14.055,12.055l-5.127,9.016l9.016-5.127l5.127-9.016L14.055,12.055z M16,16c-1.105,0-2-0.895-2-2
	c0-1.105,0.895-2,2-2s2,0.895,2,2C18,15.105,17.105,16,16,16z"/>
</svg>
