<?xml version="1.0" encoding="iso-8859-1"?><!-- Generator: Adobe Illustrator 22.1.0, SVG Export Plug-In . SVG Version: 6.00 Build 0)  -->
<svg style="enable-background:new 0 0 32 28;" id="&#x56FE;&#x5C42;_2_1_" version="1.0"
	 viewBox="0 0 32 28" x="0px" xmlns="http://www.w3.org/2000/svg" y="0px" xml:space="preserve">
<path style="fill:#45C01A;" d="M27.125,22.324c-0.429-0.781-1.212-1.442-1.973-1.951c-1.379-0.923-2.859-1.695-4.303-2.521
	c-2.236-1.279-2.419-1.878-0.97-4.024c1.159-1.716,1.773-3.542,1.648-5.622C21.347,5.195,19,3,16,3s-5.347,2.195-5.527,5.206
	c-0.125,2.08,0.489,3.906,1.648,5.622c1.449,2.146,1.266,2.745-0.97,4.024c-1.443,0.826-2.923,1.598-4.303,2.521
	c-0.76,0.509-1.544,1.17-1.973,1.951c-1.084,1.974-0.095,3.655,2.154,3.668c3.052,0.017,5.918,0,8.971,0
	c3.052,0,5.919,0.017,8.971,0C27.219,25.979,28.208,24.299,27.125,22.324z"/>
</svg>
