<?xml version="1.0" encoding="iso-8859-1"?>
<!-- Generator: Adobe Illustrator 22.1.0, SVG Export Plug-In . SVG Version: 6.00 Build 0)  -->
<svg version="1.0" id="&#x56FE;&#x5C42;_1" xmlns="http://www.w3.org/2000/svg" xmlns:xlink="http://www.w3.org/1999/xlink" x="0px"
	 y="0px" viewBox="0 0 24 24" style="enable-background:new 0 0 24 24;" xml:space="preserve">
<path style="fill:#6D6D6D;" d="M20,4H4C2.895,4,2,4.895,2,6v12c0,1.105,0.895,2,2,2h16c1.105,0,2-0.895,2-2V6
	C22,4.895,21.105,4,20,4z M16,16.781h-4.875H4l6-8l3.563,4.75l2-2.667L20,16.781H16z M19,9c-0.552,0-1-0.448-1-1s0.448-1,1-1
	s1,0.448,1,1S19.552,9,19,9z"/>
</svg>
