<?xml version="1.0" encoding="iso-8859-1"?>
<!-- Generator: Adobe Illustrator 22.1.0, SVG Export Plug-In . SVG Version: 6.00 Build 0)  -->
<svg version="1.0" id="&#x56FE;&#x5C42;_1" xmlns="http://www.w3.org/2000/svg" xmlns:xlink="http://www.w3.org/1999/xlink" x="0px"
	 y="0px" viewBox="0 0 24 24" style="enable-background:new 0 0 24 24;" xml:space="preserve">
<path style="fill:#6D6D6D;" d="M20.207,21.667L20.207,21.667l-0.069-0.044c-0.072-0.047-0.148-0.097-0.231-0.151
	c-0.015-0.01-0.029-0.02-0.043-0.03l-0.748-0.494l-3.181-5.509c-1.168,0.642-2.51,1.008-3.936,1.008s-2.768-0.366-3.936-1.008
	l-3.181,5.51l-0.748,0.494c-0.014,0.01-0.028,0.02-0.043,0.03c-1.081,0.713-1.178,0.779-1.126-0.282L2.964,21.19l0.005-0.081
	c0.005-0.085,0.01-0.177,0.015-0.275c0.001-0.018,0.003-0.035,0.004-0.052l0.054-0.895L9.446,8.795L8.812,8.161h2.23
	c0.266,0.2,0.598,0.319,0.957,0.319s0.69-0.119,0.957-0.319h2.23l-0.633,0.633l2,3.464c0.934-1.066,1.501-2.462,1.501-3.991
	c0-0.036-0.001-0.071-0.001-0.106h2.125c0,0.036,0.001,0.071,0.001,0.107c0,2.321-0.967,4.417-2.52,5.906l3.298,5.712l0.054,0.895
	c0.001,0.017,0.003,0.034,0.004,0.052C21.091,22.125,21.1,22.243,20.207,21.667z M9.45,8.798L9.45,8.798L9.45,8.798L9.45,8.798z
	 M14.549,8.798L14.549,8.798L14.549,8.798L14.549,8.798z M12.997,10.35l-0.467,0.467h-0.01c-0.134,0.131-0.318,0.213-0.521,0.213
	s-0.386-0.081-0.521-0.213h-0.01l-0.467-0.467l-1.875,3.247c0.855,0.462,1.833,0.724,2.873,0.724s2.019-0.262,2.874-0.724
	L12.997,10.35z M12.956,8.161c0.386-0.291,0.636-0.753,0.636-1.274c0-0.88-0.713-1.594-1.594-1.594c-0.88,0-1.594,0.713-1.594,1.594
	c0,0.521,0.25,0.983,0.636,1.274H9.873H8.811V7.099l0,0c0,0,0,0,0-0.001V5.293c0-0.587,0.476-1.062,1.062-1.062h0.743V2h2.762v2.231
	h0.743c0.587,0,1.062,0.476,1.062,1.062v1.805c0,0,0,0,0,0.001l0,0v1.062h-1.062C14.123,8.161,12.956,8.161,12.956,8.161z"/>
</svg>
