<?xml version="1.0" encoding="iso-8859-1"?>
<!-- Generator: Adobe Illustrator 22.1.0, SVG Export Plug-In . SVG Version: 6.00 Build 0)  -->
<svg version="1.0" id="&#x56FE;&#x5C42;_1" xmlns="http://www.w3.org/2000/svg" xmlns:xlink="http://www.w3.org/1999/xlink" x="0px"
	 y="0px" viewBox="0 0 24 24" style="enable-background:new 0 0 24 24;" xml:space="preserve">
<path style="fill-rule:evenodd;clip-rule:evenodd;fill:#6D6D6D;" d="M19.361,18.838l-2.681-4.643C18.101,12.914,19,11.064,19,9h-2
	c0,1.319-0.521,2.509-1.355,3.402l-1.482-2.566L15,9V6c0-0.552-0.448-1-1-1h-1V3h-2v2h-1C9.448,5,9,5.448,9,6v3l0.833,0.833
	l-5.197,9.001l-0.134,2.232l1.866-1.232l2.622-4.541C9.904,15.733,10.917,16,12,16c1.081,0,2.101-0.252,3.015-0.69l2.614,4.528
	l1.866,1.232L19.361,18.838z M12,6.65c0.69,0,1.25,0.56,1.25,1.25c0,0.69-0.56,1.25-1.25,1.25s-1.25-0.56-1.25-1.25
	C10.75,7.21,11.31,6.65,12,6.65z M12,14c-0.719,0-1.39-0.172-2.005-0.449l1.301-2.254C12,12,12,12,12.7,11.3l1.311,2.271
	C13.395,13.843,12.717,14,12,14z"/>
</svg>
