<?xml version="1.0" encoding="utf-8"?><!-- Generator: Adobe Illustrator 22.1.0, SVG Export Plug-In . SVG Version: 6.00 Build 0)  -->
<svg style="enable-background:new 0 0 72 72;" id="Foreground_Layer" version="1.0"  viewBox="0 0 72 72"
	 x="0px" xmlns="http://www.w3.org/2000/svg" y="0px" xml:space="preserve">
<style type="text/css">
	.st0{fill:#4788F4;}
	.st1{fill:#FFFFFF;}
</style>
<circle class="st0" cx="36" cy="36" r="36"/>
<path class="st1" d="M54,22H38l-4-4H18c-2.2,0-4,1.8-4,4v2v4v4v4v4v4v4v6h6h4h4h4h4h4h14c2.2,0,4-1.8,4-4V26C58,23.8,56.2,22,54,22z
	 M17,51v-6c3.3,0,6,2.7,6,6H17z M27,51c0-5.5-4.5-10-10-10v-4c7.7,0,14,6.3,14,14H27z M35,51c0-9.9-8.1-18-18-18v-4
	c12.1,0,22,9.8,22,22H35z"/>
</svg>
