<?xml version="1.0" encoding="utf-8"?><!-- Generator: Adobe Illustrator 22.1.0, SVG Export Plug-In . SVG Version: 6.00 Build 0)  -->
<svg style="enable-background:new 0 0 72 72;" id="Foreground_Layer" version="1.0"  viewBox="0 0 72 72"
	 x="0px" xmlns="http://www.w3.org/2000/svg" y="0px" xml:space="preserve">
<style type="text/css">
	.st0{fill:#4788F4;}
	.st1{fill:#FFFFFF;}
</style>
<circle class="st0" cx="36" cy="36" r="36"/>
<path class="st1" d="M54,58H18c-2.2,0-4-1.8-4-4V18c0-2.2,1.8-4,4-4h36c2.2,0,4,1.8,4,4v36C58,56.2,56.2,58,54,58z"/>
<path class="st0" d="M51.7,47.1c-0.2-0.7-0.3-1.8-0.3-3.1c-0.6,0.9-1.4,1.7-2.5,2.4c-1.1,0.7-2.5,1-4.2,1c-1.6,0-2.8-0.4-3.8-1.3
	c-0.9-0.9-1.4-2-1.4-3.3c0-1.5,0.7-2.7,2.1-3.7c1.4-1,3.3-1.4,5.7-1.4h4v-2.5c0-1.4-0.4-2.5-1.3-3.3c-0.9-0.8-2.2-1.2-3.8-1.2
	c-1.5,0-2.8,0.4-3.9,1.2c-1,0.8-1.6,1.8-1.6,2.9l-0.8,0c0-1.3,0.6-2.5,1.8-3.5c1.2-1,2.7-1.5,4.5-1.5c1.8,0,3.2,0.4,4.3,1.3
	c1.1,0.9,1.7,2.2,1.7,4v8.1c0,1.7,0.1,2.9,0.4,3.6v0.1H51.7z M44.7,46.6c1.6,0,3-0.4,4.1-1.1c1.1-0.7,2-1.7,2.5-3v-4h-4.1
	c-2.2,0-3.9,0.4-5.1,1.2s-1.9,1.9-1.9,3.1c0,1,0.4,1.9,1.2,2.6C42.4,46.2,43.4,46.6,44.7,46.6z"/>
<path class="st0" d="M19.3,47.2l8.8-22.6l1,0l8.2,22.9l-0.9,0L34,40.6l-11.2-0.1l-2.6,6.8L19.3,47.2z M23.2,39.6l10.5,0.1l-5.1-14.2
	L23.2,39.6z"/>
</svg>
