<?xml version="1.0" encoding="iso-8859-1"?><!-- Generator: Adobe Illustrator 22.1.0, SVG Export Plug-In . SVG Version: 6.00 Build 0)  -->
<svg style="enable-background:new 0 0 72 72;" id="Foreground_Layer" version="1.0"  viewBox="0 0 72 72"
	 x="0px" xmlns="http://www.w3.org/2000/svg" y="0px" xml:space="preserve">
<circle style="fill:#4788F4;" cx="36" cy="36" r="36"/>
<path style="fill:#FFFFFF;" d="M49.5,28.125h-2.25v-4.5c0-6.21-5.04-11.25-11.25-11.25s-11.25,5.04-11.25,11.25v4.5H22.5
	c-2.475,0-4.5,2.025-4.5,4.5v22.5c0,2.475,2.025,4.5,4.5,4.5h27c2.475,0,4.5-2.025,4.5-4.5v-22.5
	C54,30.15,51.975,28.125,49.5,28.125z M36,48.375c-2.475,0-4.5-2.025-4.5-4.5s2.025-4.5,4.5-4.5s4.5,2.025,4.5,4.5
	S38.475,48.375,36,48.375z M42.975,28.125h-13.95v-4.5c0-3.847,3.128-6.975,6.975-6.975s6.975,3.128,6.975,6.975V28.125z"/>
</svg>
