<?xml version="1.0" encoding="iso-8859-1"?><!-- Generator: Adobe Illustrator 22.1.0, SVG Export Plug-In . SVG Version: 6.00 Build 0)  -->
<svg style="enable-background:new 0 0 32 32;" id="&#x56FE;&#x5C42;_1" version="1.0"  viewBox="0 0 32 32"
	 x="0px" xmlns="http://www.w3.org/2000/svg" y="0px" xml:space="preserve">
<g>
	<path style="fill:#959595;" d="M16,0.75c8.409,0,15.25,6.841,15.25,15.25S24.409,31.25,16,31.25S0.75,24.409,0.75,16
		S7.591,0.75,16,0.75 M16,0C7.163,0,0,7.163,0,16s7.163,16,16,16s16-7.163,16-16S24.837,0,16,0L16,0z"/>
</g>
<g>
	<path style="fill:#959595;" d="M11.475,18.475C12.108,17.841,12.5,16.966,12.5,16s-0.392-1.841-1.025-2.475L9,16L11.475,18.475z"/>
</g>
<g>
	<path style="fill:#959595;" d="M15.25,16c0,1.726-0.7,3.288-1.831,4.419l1.945,1.945C16.993,20.735,18,18.485,18,16
		c0-2.485-1.007-4.735-2.636-6.364l-1.945,1.945C14.55,12.712,15.25,14.274,15.25,16z"/>
</g>
<g>
	<path style="fill:#959595;" d="M17.308,7.692C19.435,9.818,20.75,12.755,20.75,16c0,3.245-1.315,6.182-3.442,8.308l1.945,1.945
		C21.877,23.629,23.5,20.004,23.5,16c0-4.004-1.623-7.629-4.247-10.253L17.308,7.692z"/>
</g>
</svg>
