<?xml version="1.0" encoding="iso-8859-1"?><!-- Generator: Adobe Illustrator 22.1.0, SVG Export Plug-In . SVG Version: 6.00 Build 0)  -->
<svg style="enable-background:new 0 0 32 32;" id="&#x56FE;&#x5C42;_1" version="1.0"  viewBox="0 0 32 32"
	 x="0px" xmlns="http://www.w3.org/2000/svg" y="0px" xml:space="preserve">
<g>
	<path style="fill:#959595;" d="M16,0.75c8.409,0,15.25,6.841,15.25,15.25S24.409,31.25,16,31.25S0.75,24.409,0.75,16
		S7.591,0.75,16,0.75 M16,0C7.163,0,0,7.163,0,16s7.163,16,16,16s16-7.163,16-16S24.837,0,16,0L16,0z"/>
</g>
<path style="fill:#959595;" d="M16,26c5.247,0,9.5-4.029,9.5-9h-19C6.5,21.971,10.753,26,16,26z"/>
<ellipse style="fill:#959595;" cx="10" cy="13" rx="1.5" ry="2"/>
<ellipse style="fill:#959595;" cx="22" cy="13" rx="1.5" ry="2"/>
</svg>
