<?xml version="1.0" encoding="iso-8859-1"?><!-- Generator: Adobe Illustrator 22.1.0, SVG Export Plug-In . SVG Version: 6.00 Build 0)  -->
<svg style="enable-background:new 0 0 72 72;" id="Foreground_Layer" version="1.0"  viewBox="0 0 72 72"
	 x="0px" xmlns="http://www.w3.org/2000/svg" y="0px" xml:space="preserve">
<circle style="fill:#4788F4;" cx="36" cy="36" r="36"/>
<g>
	<path style="fill:#FFFFFF;" d="M29.636,26.64c-0.769,0-1.538,0.292-2.121,0.875l0,0c-1.167,1.167-1.167,3.076,0,4.243
		l12.728,12.728c0.583,0.583,1.352,0.875,2.121,0.875c0.769,0,1.538-0.292,2.121-0.875l0,0c1.167-1.167,1.167-3.076,0-4.243
		L31.757,27.515C31.174,26.931,30.405,26.64,29.636,26.64L29.636,26.64z"/>
</g>
<g>
	<path style="fill:#FFFFFF;" d="M44.485,31.757h0.005H44.485 M42.364,26.64c-0.769,0-1.538,0.292-2.121,0.875L27.515,40.243
		c-1.167,1.167-1.167,3.076,0,4.243l0,0c0.583,0.583,1.352,0.875,2.121,0.875c0.769,0,1.538-0.292,2.121-0.875l12.728-12.728
		c1.167-1.167,1.167-3.076,0-4.243l0,0C43.902,26.931,43.133,26.64,42.364,26.64L42.364,26.64z"/>
</g>
<path style="fill:#FFFFFF;" d="M36,10c-1.657,0-3,1.343-3,3s1.343,3,3,3c11.046,0,20,8.954,20,20c0,11.046-8.954,20-20,20
	c-1.657,0-3,1.343-3,3s1.343,3,3,3c14.359,0,26-11.641,26-26C62,21.641,50.359,10,36,10z"/>
<circle style="fill:#FFFFFF;" cx="24.5" cy="16.081" r="3"/>
<circle style="fill:#FFFFFF;" cx="16.081" cy="24.5" r="3"/>
<circle style="fill:#FFFFFF;" cx="13" cy="36" r="3"/>
<circle style="fill:#FFFFFF;" cx="16.081" cy="47.5" r="3"/>
<circle style="fill:#FFFFFF;" cx="24.5" cy="55.919" r="3"/>
</svg>
