<?xml version="1.0" encoding="iso-8859-1"?><!-- Generator: Adobe Illustrator 22.1.0, SVG Export Plug-In . SVG Version: 6.00 Build 0)  -->
<svg style="enable-background:new 0 0 72 72;" id="Foreground_Layer" version="1.0"  viewBox="0 0 72 72"
	 x="0px" xmlns="http://www.w3.org/2000/svg" y="0px" xml:space="preserve">
<circle style="fill:#4788F4;" cx="36" cy="36" r="36"/>
<path style="fill:#FFFFFF;" d="M58,54H14c-2.209,0-4-1.791-4-4V22c0-2.209,1.791-4,4-4h44c2.209,0,4,1.791,4,4v28
	C62,52.209,60.209,54,58,54z"/>
<path style="fill:#4788F4;" d="M12,40v10c0,1.105,0.895,2,2,2h44c1.105,0,2-0.895,2-2V40H12z M28,50H14v-8h14V50z M58,50H44v-8h14
	V50z"/>
</svg>
