<?xml version="1.0" encoding="iso-8859-1"?><!-- Generator: Adobe Illustrator 22.1.0, SVG Export Plug-In . SVG Version: 6.00 Build 0)  -->
<svg style="enable-background:new 0 0 72 72;" id="Foreground_Layer" version="1.0"  viewBox="0 0 72 72"
	 x="0px" xmlns="http://www.w3.org/2000/svg" y="0px" xml:space="preserve">
<circle style="fill:#4788F4;" cx="36" cy="36" r="36"/>
<path style="fill:#FFFFFF;" d="M18.5,27h-4c-1.105,0-2-0.895-2-2v-4c0-1.105,0.895-2,2-2h4c1.105,0,2,0.895,2,2v4
	C20.5,26.105,19.605,27,18.5,27z"/>
<path style="fill:#FFFFFF;" d="M57.5,27h-4c-1.105,0-2-0.895-2-2v-4c0-1.105,0.895-2,2-2h4c1.105,0,2,0.895,2,2v4
	C59.5,26.105,58.605,27,57.5,27z"/>
<path style="fill:#FFFFFF;" d="M31.5,27h-4c-1.105,0-2-0.895-2-2v-4c0-1.105,0.895-2,2-2h4c1.105,0,2,0.895,2,2v4
	C33.5,26.105,32.605,27,31.5,27z"/>
<path style="fill:#FFFFFF;" d="M44.5,27h-4c-1.105,0-2-0.895-2-2v-4c0-1.105,0.895-2,2-2h4c1.105,0,2,0.895,2,2v4
	C46.5,26.105,45.605,27,44.5,27z"/>
<path style="fill:#FFFFFF;" d="M18.5,40h-4c-1.105,0-2-0.895-2-2v-4c0-1.105,0.895-2,2-2h4c1.105,0,2,0.895,2,2v4
	C20.5,39.105,19.605,40,18.5,40z"/>
<path style="fill:#FFFFFF;" d="M31.5,40h-4c-1.105,0-2-0.895-2-2v-4c0-1.105,0.895-2,2-2h4c1.105,0,2,0.895,2,2v4
	C33.5,39.105,32.605,40,31.5,40z"/>
<path style="fill:#FFFFFF;" d="M44.5,40h-4c-1.105,0-2-0.895-2-2v-4c0-1.105,0.895-2,2-2h4c1.105,0,2,0.895,2,2v4
	C46.5,39.105,45.605,40,44.5,40z"/>
<path style="fill:#FFFFFF;" d="M57.5,40h-4c-1.105,0-2-0.895-2-2v-4c0-1.105,0.895-2,2-2h4c1.105,0,2,0.895,2,2v4
	C59.5,39.105,58.605,40,57.5,40z"/>
<path style="fill:#FFFFFF;" d="M47.5,53h-22c-1.105,0-2-0.895-2-2v-4c0-1.105,0.895-2,2-2h22c1.105,0,2,0.895,2,2v4
	C49.5,52.105,48.605,53,47.5,53z"/>
</svg>
