<?xml version="1.0" encoding="iso-8859-1"?><!-- Generator: Adobe Illustrator 22.1.0, SVG Export Plug-In . SVG Version: 6.00 Build 0)  -->
<svg style="enable-background:new 0 0 72 72;" id="Foreground_Layer" version="1.0"  viewBox="0 0 72 72"
	 x="0px" xmlns="http://www.w3.org/2000/svg" y="0px" xml:space="preserve">
<circle style="fill:#4788F4;" cx="36" cy="36" r="36"/>
<path style="fill:#FFFFFF;" d="M58,54H14c-2.2,0-4-1.8-4-4V22c0-2.2,1.8-4,4-4h44c2.2,0,4,1.8,4,4v28C62,52.2,60.2,54,58,54z"/>
<path style="fill:#4788F4;" d="M57,29H15c-1.1,0-2-0.9-2-2v-3c0-1.1,0.9-2,2-2h42c1.1,0,2,0.9,2,2v3C59,28.1,58.1,29,57,29z"/>
<path style="fill:#4788F4;" d="M57,50H15c-1.1,0-2-0.9-2-2v-3c0-1.1,0.9-2,2-2h42c1.1,0,2,0.9,2,2v3C59,49.1,58.1,50,57,50z"/>
<path style="fill:#4788F4;" d="M18,39.5h-3c-1.1,0-2-0.9-2-2v-3c0-1.1,0.9-2,2-2h3c1.1,0,2,0.9,2,2v3C20,38.6,19.1,39.5,18,39.5z"/>
<path style="fill:#4788F4;" d="M57,39.5h-3c-1.1,0-2-0.9-2-2v-3c0-1.1,0.9-2,2-2h3c1.1,0,2,0.9,2,2v3C59,38.6,58.1,39.5,57,39.5z"/>
<path style="fill:#4788F4;" d="M27.75,39.5h-3c-1.1,0-2-0.9-2-2v-3c0-1.1,0.9-2,2-2h3c1.1,0,2,0.9,2,2v3
	C29.75,38.6,28.85,39.5,27.75,39.5z"/>
<path style="fill:#4788F4;" d="M47.25,39.5h-3c-1.1,0-2-0.9-2-2v-3c0-1.1,0.9-2,2-2h3c1.1,0,2,0.9,2,2v3
	C49.25,38.6,48.35,39.5,47.25,39.5z"/>
<path style="fill:#4788F4;" d="M37.5,39.5h-3c-1.1,0-2-0.9-2-2v-3c0-1.1,0.9-2,2-2h3c1.1,0,2,0.9,2,2v3
	C39.5,38.6,38.6,39.5,37.5,39.5z"/>
</svg>
