<?xml version="1.0" encoding="iso-8859-1"?><!-- Generator: Adobe Illustrator 22.1.0, SVG Export Plug-In . SVG Version: 6.00 Build 0)  -->
<svg style="enable-background:new 0 0 72 72;" id="Foreground_Layer" version="1.0"  viewBox="0 0 72 72"
	 x="0px" xmlns="http://www.w3.org/2000/svg" y="0px" xml:space="preserve">
<circle style="fill:#4788F4;" cx="36" cy="36" r="36"/>
<path style="fill:#FFFFFF;" d="M36,10c-2.209,0-4,1.791-4,4c0,2.209,1.791,4,4,4c9.941,0,18,8.059,18,18c0,9.941-8.059,18-18,18
	s-18-8.059-18-18c0-2.209-1.791-4-4-4s-4,1.791-4,4c0,14.359,11.641,26,26,26s26-11.641,26-26C62,21.641,50.359,10,36,10z"/>
</svg>
