<?xml version="1.0" encoding="iso-8859-1"?><!-- Generator: Adobe Illustrator 22.1.0, SVG Export Plug-In . SVG Version: 6.00 Build 0)  -->
<svg style="enable-background:new 0 0 72 72;" id="Foreground_Layer" version="1.0"  viewBox="0 0 72 72"
	 x="0px" xmlns="http://www.w3.org/2000/svg" y="0px" xml:space="preserve">
<circle style="fill:#4788F4;" cx="36" cy="36" r="36"/>
<path style="fill:#FFFFFF;" d="M46,58H26c-2.2,0-4-1.8-4-4V18c0-2.2,1.8-4,4-4h20c2.2,0,4,1.8,4,4v36C50,56.2,48.2,58,46,58z"/>
<path style="fill:#FFFFFF;" d="M20,54h-6c-2.2,0-4-1.8-4-4V22c0-2.2,1.8-4,4-4h6V54z"/>
<path style="fill:#FFFFFF;" d="M52,54h6c2.2,0,4-1.8,4-4V22c0-2.2-1.8-4-4-4h-6V54z"/>
</svg>
