<?xml version="1.0" encoding="iso-8859-1"?><!-- Generator: Adobe Illustrator 22.1.0, SVG Export Plug-In . SVG Version: 6.00 Build 0)  -->
<svg style="enable-background:new 0 0 72 72;" id="Foreground_Layer" version="1.0"  viewBox="0 0 72 72"
	 x="0px" xmlns="http://www.w3.org/2000/svg" y="0px" xml:space="preserve">
<circle style="fill:#4788F4;" cx="36" cy="36" r="36"/>
<path style="fill:#FFFFFF;" d="M58,54H14c-2.2,0-4-1.8-4-4V22c0-2.2,1.8-4,4-4h44c2.2,0,4,1.8,4,4v28C62,52.2,60.2,54,58,54z"/>
<path style="fill:#4788F4;" d="M32,28H16c-1.105,0-2-0.895-2-2v-2c0-1.105,0.895-2,2-2h16c1.105,0,2,0.895,2,2v2
	C34,27.105,33.105,28,32,28z"/>
<path style="fill:#4788F4;" d="M40,28h16c1.105,0,2-0.895,2-2v-2c0-1.105-0.895-2-2-2H40c-1.105,0-2,0.895-2,2v2
	C38,27.105,38.895,28,40,28z"/>
<path style="fill:#4788F4;" d="M40,44H16c-1.105,0-2,0.895-2,2v2c0,1.105,0.895,2,2,2h24c1.105,0,2-0.895,2-2v-2
	C42,44.895,41.105,44,40,44z"/>
<path style="fill:#4788F4;" d="M48,44h8c1.105,0,2,0.895,2,2v2c0,1.105-0.895,2-2,2h-8c-1.105,0-2-0.895-2-2v-2
	C46,44.895,46.895,44,48,44z"/>
<path style="fill:#4788F4;" d="M30,39H16c-1.105,0-2-0.895-2-2v-2c0-1.105,0.895-2,2-2h14c1.105,0,2,0.895,2,2v2
	C32,38.105,31.105,39,30,39z"/>
<path style="fill:#4788F4;" d="M38,33h14c1.105,0,2,0.895,2,2v2c0,1.105-0.895,2-2,2H38c-1.105,0-2-0.895-2-2v-2
	C36,33.895,36.895,33,38,33z"/>
</svg>
