<?xml version="1.0" encoding="iso-8859-1"?><!-- Generator: Adobe Illustrator 22.1.0, SVG Export Plug-In . SVG Version: 6.00 Build 0)  -->
<svg style="enable-background:new 0 0 72 72;" id="Foreground_Layer" version="1.0"  viewBox="0 0 72 72"
	 x="0px" xmlns="http://www.w3.org/2000/svg" y="0px" xml:space="preserve">
<circle style="fill:#4788F4;" cx="36" cy="36" r="36"/>
<polygon style="fill:#FFFFFF;" points="36,28.392 38.472,33.401 44,34.204 40,38.103 40.944,43.608 36,41.009 31.056,43.608 
	32,38.103 28,34.204 33.528,33.401 "/>
<polygon style="fill:#FFFFFF;" points="19,28.392 21.472,33.401 27,34.204 23,38.103 23.944,43.608 19,41.009 14.056,43.608 
	15,38.103 11,34.204 16.528,33.401 "/>
<g>
	<path style="fill:#FFFFFF;" d="M53,30.651l1.575,3.192l0.233,0.471l0.52,0.076l3.523,0.512l-2.549,2.485l-0.376,0.367l0.089,0.518
		l0.602,3.508l-3.151-1.656L53,39.879l-0.465,0.245l-3.151,1.656l0.602-3.508l0.089-0.518l-0.376-0.367l-2.549-2.485l3.523-0.512
		l0.52-0.076l0.233-0.471L53,30.651 M53,28.392l-2.472,5.009L45,34.204l4,3.899l-0.944,5.506L53,41.009l4.944,2.599L57,38.103
		l4-3.899l-5.528-0.803L53,28.392L53,28.392z"/>
</g>
</svg>
