<?xml version="1.0" encoding="iso-8859-1"?><!-- Generator: Adobe Illustrator 22.1.0, SVG Export Plug-In . SVG Version: 6.00 Build 0)  -->
<svg style="enable-background:new 0 0 72 72;" id="Foreground_Layer" version="1.0"  viewBox="0 0 72 72"
	 x="0px" xmlns="http://www.w3.org/2000/svg" y="0px" xml:space="preserve">
<circle style="fill:#4788F4;" cx="36" cy="36" r="36"/>
<path style="fill:#FFFFFF;" d="M54,58H18c-2.209,0-4-1.791-4-4V18c0-2.209,1.791-4,4-4h36c2.209,0,4,1.791,4,4v36
	C58,56.209,56.209,58,54,58z"/>
<rect style="fill:#4788F4;" height="24" width="16" x="38.09" y="24"/>
<path style="fill:#FFFFFF;" d="M51.692,47.125c-0.209-0.74-0.313-1.771-0.313-3.094c-0.563,0.916-1.394,1.713-2.492,2.391
	c-1.1,0.676-2.487,1.016-4.164,1.016c-1.573,0-2.834-0.43-3.781-1.289c-0.948-0.859-1.422-1.961-1.422-3.305
	c0-1.511,0.689-2.748,2.07-3.711c1.38-0.963,3.294-1.445,5.742-1.445h4.047v-2.469c0-1.406-0.448-2.502-1.344-3.289
	c-0.896-0.786-2.167-1.18-3.813-1.18c-1.531,0-2.815,0.396-3.852,1.188c-1.037,0.792-1.555,1.771-1.555,2.937l-0.844-0.031
	c0-1.323,0.586-2.477,1.758-3.461c1.172-0.984,2.669-1.477,4.492-1.477c1.76,0,3.2,0.445,4.32,1.336
	c1.119,0.891,1.68,2.227,1.68,4.008v8.094c0,1.688,0.146,2.9,0.438,3.641v0.141H51.692z M44.723,46.609
	c1.635,0,3.013-0.365,4.133-1.094c1.119-0.729,1.961-1.714,2.523-2.953v-4.016h-4.078c-2.156,0.011-3.852,0.422-5.086,1.234
	s-1.852,1.854-1.852,3.125c0,1.021,0.406,1.893,1.219,2.617C42.395,46.247,43.442,46.609,44.723,46.609z"/>
<path style="fill:#4788F4;" d="M19.339,47.199l8.815-22.636l1.031,0.014L37.4,47.437l-0.922-0.012l-2.441-6.83l-11.155-0.147
	l-2.621,6.763L19.339,47.199z M23.206,39.608l10.53,0.139l-5.079-14.162L23.206,39.608z"/>
</svg>
