<?xml version="1.0" encoding="iso-8859-1"?><!-- Generator: Adobe Illustrator 22.1.0, SVG Export Plug-In . SVG Version: 6.00 Build 0)  -->
<svg style="enable-background:new 0 0 72 72;" id="Foreground_Layer" version="1.0"  viewBox="0 0 72 72"
	 x="0px" xmlns="http://www.w3.org/2000/svg" y="0px" xml:space="preserve">
<circle style="fill:#4788F4;" cx="36" cy="36" r="36"/>
<g>
	<circle style="fill:#4788F4;" cx="36" cy="36" r="25"/>
	<path style="fill:#FFFFFF;" d="M36,12c13.234,0,24,10.766,24,24S49.234,60,36,60S12,49.234,12,36S22.766,12,36,12 M36,10
		c-14.359,0-26,11.641-26,26s11.641,26,26,26s26-11.641,26-26S50.359,10,36,10L36,10z"/>
</g>
<g>
	<path style="fill:none;" d="M49.939,53H32.495H16.337c4.768,5.509,11.805,9,19.663,9s14.896-3.491,19.663-9H49.939z"/>
	<path style="fill:none;" d="M41.217,41.371l7.157-9.542l11.258,15.011C61.148,43.539,62,39.87,62,36c0-14.359-11.641-26-26-26
		S10,21.641,10,36c0,3.628,0.745,7.081,2.087,10.217L28.47,24.374L41.217,41.371z M52.674,18c1.976,0,3.578,1.602,3.578,3.578
		c0,1.976-1.602,3.578-3.578,3.578c-1.976,0-3.578-1.602-3.578-3.578C49.096,19.602,50.698,18,52.674,18z"/>
	<path style="fill:#FFFFFF;" d="M52.674,25.157c1.976,0,3.578-1.602,3.578-3.578c0-1.976-1.602-3.578-3.578-3.578
		c-1.976,0-3.578,1.602-3.578,3.578C49.096,23.555,50.698,25.157,52.674,25.157z"/>
	<path style="fill:#FFFFFF;" d="M49.939,53h5.724c1.597-1.845,2.938-3.916,3.969-6.161L48.374,31.829l-7.157,9.542L28.47,24.374
		L12.087,46.217c1.063,2.485,2.506,4.767,4.25,6.783h16.158H49.939z"/>
</g>
</svg>
